<?xml version="1.0" encoding="utf-8"?>
<!-- Generator: Adobe Illustrator 26.2.1, SVG Export Plug-In . SVG Version: 6.00 Build 0)  -->
<svg version="1.1"
	 id="Layer_1" xmlns:cc="http://creativecommons.org/ns#" xmlns:dc="http://purl.org/dc/elements/1.1/" xmlns:inkscape="http://www.inkscape.org/namespaces/inkscape" xmlns:rdf="http://www.w3.org/1999/02/22-rdf-syntax-ns#" xmlns:sodipodi="http://sodipodi.sourceforge.net/DTD/sodipodi-0.dtd" xmlns:svg="http://www.w3.org/2000/svg"
	 xmlns="http://www.w3.org/2000/svg" xmlns:xlink="http://www.w3.org/1999/xlink" x="0px" y="0px" viewBox="0 0 202 58.6"
	 style="enable-background:new 0 0 202 58.6;" xml:space="preserve">
<style type="text/css">
	.st0{display:none;opacity:0.3;}
	.st1{display:inline;}
	.st2{clip-path:url(#SVGID_00000140701008992666519440000010593213972972857524_);fill:#BE2F31;}
	.st3{clip-path:url(#SVGID_00000078002387315677663190000010554832959731953084_);fill:#BE2F31;}
	.st4{clip-path:url(#SVGID_00000026147260217592777700000015141521775098832798_);fill:#BE2F31;}
	.st5{clip-path:url(#SVGID_00000040548665094895485850000018084356415600057731_);fill:#BE2F31;}
	.st6{clip-path:url(#SVGID_00000010294941731843817540000008852419494593111438_);fill:#BE2F31;}
	.st7{clip-path:url(#SVGID_00000022551559596006869100000017660586696412761002_);fill:#BE2F31;}
	.st8{clip-path:url(#SVGID_00000110442813737400663420000017709058868258068618_);fill:#BE2F31;}
	.st9{clip-path:url(#SVGID_00000183238596035588443970000003865266311243982497_);fill:#BE2F31;}
	.st10{clip-path:url(#SVGID_00000072979133393984849510000005143978556327727284_);fill:#BE2F31;}
	.st11{clip-path:url(#SVGID_00000121985447086436417030000012944518465518237325_);fill:#BE2F31;}
	.st12{clip-path:url(#SVGID_00000097479265097177015630000004844848977765385911_);fill:#BE2F31;}
	.st13{clip-path:url(#SVGID_00000126301648656230621560000003029712301799597238_);fill:#BE2F31;}
	.st14{clip-path:url(#SVGID_00000165231360995676682750000015425909157434183845_);fill:#BE2F31;}
	.st15{clip-path:url(#SVGID_00000165922648391615118620000013227026468186634378_);fill:#BE2F31;}
	.st16{clip-path:url(#SVGID_00000065775307934658353610000017010022870025469115_);fill:#BE2F31;}
	.st17{clip-path:url(#SVGID_00000137129515928697127310000012908025517642679936_);fill:#BE2F31;}
	.st18{clip-path:url(#SVGID_00000108279408747742931380000011707058910643871884_);fill:#BE2F31;}
	.st19{clip-path:url(#SVGID_00000029752399538658859940000000043986230112866480_);fill:#BE2F31;}
	.st20{clip-path:url(#SVGID_00000064343335046292428490000004777344266385049761_);fill:#BE2F31;}
	.st21{clip-path:url(#SVGID_00000140715028881111202190000003253332529763020222_);fill:#BE2F31;}
	.st22{clip-path:url(#SVGID_00000101785807989349399050000008793566334824568729_);fill:#BE2F31;}
	.st23{clip-path:url(#SVGID_00000168833824667224006390000013286088605376359850_);fill:#BE2F31;}
	.st24{clip-path:url(#SVGID_00000014606817283867589880000017273205605766939827_);fill:#BE2F31;}
	.st25{clip-path:url(#SVGID_00000060745043719270060510000011899773063468068016_);fill:#BE2F31;}
	.st26{clip-path:url(#SVGID_00000067927600799169679290000016175239024075555247_);fill:#BE2F31;}
	.st27{clip-path:url(#SVGID_00000001662454028089128860000004850774299461517710_);fill:#BE2F31;}
	.st28{clip-path:url(#SVGID_00000030446631779831676030000001617521912978630306_);fill:#BE2F31;}
	.st29{clip-path:url(#SVGID_00000103944536579355697630000009721082844568341680_);fill:#BE2F31;}
	.st30{clip-path:url(#SVGID_00000004539878030526363530000011485193209362145435_);fill:#BE2F31;}
	.st31{clip-path:url(#SVGID_00000002376509311799518680000013552780724859175594_);fill:#BE2F31;}
	.st32{clip-path:url(#SVGID_00000121985832033422001610000002708182718701982379_);fill:#BE2F31;}
	.st33{clip-path:url(#SVGID_00000057845796597773084220000013084049457446184592_);fill:#BE2F31;}
	.st34{clip-path:url(#SVGID_00000091708714914203281140000012555170336517382041_);fill:#BE2F31;}
	.st35{clip-path:url(#SVGID_00000096037522039482301820000016333179988138765460_);fill:#BE2F31;}
	.st36{clip-path:url(#SVGID_00000121263533024789444400000016189924777459101579_);fill:#BE2F31;}
	.st37{clip-path:url(#SVGID_00000005266740486052590390000016367519382281188497_);fill:#BE2F31;}
	.st38{clip-path:url(#SVGID_00000017483940033686668970000011352622817537279364_);fill:#BE2F31;}
	.st39{clip-path:url(#SVGID_00000026142956295436547330000005238130394900959897_);fill:#BE2F31;}
	.st40{clip-path:url(#SVGID_00000021105773785366677130000001582461344624978061_);fill:#BE2F31;}
	.st41{clip-path:url(#SVGID_00000072276948889111414350000001811615579673659831_);fill:#BE2F31;}
	.st42{clip-path:url(#SVGID_00000175320317011757597860000017473442130336133013_);fill:#BE2F31;}
	.st43{clip-path:url(#SVGID_00000016776333707369786770000003381707491613225916_);fill:#BE2F31;}
	.st44{clip-path:url(#SVGID_00000088853449264570971270000010545209718569138614_);fill:#BE2F31;}
	.st45{clip-path:url(#SVGID_00000097477844695145919070000009534572852185498515_);fill:#BE2F31;}
	.st46{clip-path:url(#SVGID_00000087401262417566210220000010018890293874145178_);fill:#BE2F31;}
	.st47{clip-path:url(#SVGID_00000157287688011618702180000009261774444110254782_);fill:#A5132A;}
	.st48{clip-path:url(#SVGID_00000069379012919473597790000006499059707587865494_);fill:#A5132A;}
	.st49{clip-path:url(#SVGID_00000016771506227481633870000013951663240209629615_);fill:#A5132A;}
	.st50{clip-path:url(#SVGID_00000065060714566265985360000011252780093987385230_);}
	.st51{fill:#A5132A;}
</style>
<sodipodi:namedview  bordercolor="#666666" borderopacity="1" fit-margin-bottom="1" fit-margin-left="1" fit-margin-right="1" fit-margin-top="1" gridtolerance="10" guidetolerance="10" id="namedview53" inkscape:current-layer="Layer_1" inkscape:cx="101.94501" inkscape:cy="32.114985" inkscape:pageopacity="0" inkscape:pageshadow="2" inkscape:window-height="681" inkscape:window-maximized="0" inkscape:window-width="1018" inkscape:window-x="0" inkscape:window-y="0" inkscape:zoom="0.39645207" objecttolerance="10" pagecolor="#ffffff" showgrid="false">
	</sodipodi:namedview>
<g>
	<g class="st0">
		<g class="st1">
			<defs>
				<rect id="SVGID_1_" y="0.9" width="200.1" height="57.7"/>
			</defs>
			<clipPath id="SVGID_00000114751780289330552110000007802152720606931597_">
				<use xlink:href="#SVGID_1_"  style="overflow:visible;"/>
			</clipPath>
			<path style="clip-path:url(#SVGID_00000114751780289330552110000007802152720606931597_);fill:#BE2F31;" d="M2.2,16.2
				c1.2,0,2.2-1,2.2-2.2s-1-2.2-2.2-2.2S0,12.8,0,14C0,15.2,1,16.2,2.2,16.2"/>
		</g>
		<g class="st1">
			<defs>
				<rect id="SVGID_00000140007300654588332520000002613725919814547354_" y="0.9" width="200.1" height="57.7"/>
			</defs>
			<clipPath id="SVGID_00000051359425176715005680000003225039786641884046_">
				<use xlink:href="#SVGID_00000140007300654588332520000002613725919814547354_"  style="overflow:visible;"/>
			</clipPath>
			<path style="clip-path:url(#SVGID_00000051359425176715005680000003225039786641884046_);fill:#BE2F31;" d="M7.6,41H33V0.9H7.6
				V41z M13,16.2c-1.2,0-2.2-1-2.2-2.2s1-2.2,2.2-2.2s2.2,1,2.2,2.2S14.2,16.2,13,16.2 M23.8,37.6c-1.2,0-2.2-1-2.2-2.2
				s1-2.2,2.2-2.2s2.2,1,2.2,2.2S25,37.6,23.8,37.6 M23.8,26.9c-1.2,0-2.2-1-2.2-2.2s1-2.2,2.2-2.2s2.2,1,2.2,2.2S25,26.9,23.8,26.9
				 M23.8,16.2c-1.2,0-2.2-1-2.2-2.2s1-2.2,2.2-2.2s2.2,1,2.2,2.2S25,16.2,23.8,16.2"/>
		</g>
		<g class="st1">
			<defs>
				<rect id="SVGID_00000052789999942205001840000008003161819223976091_" y="0.9" width="200.1" height="57.7"/>
			</defs>
			<clipPath id="SVGID_00000106146339542716443570000001248541664746338208_">
				<use xlink:href="#SVGID_00000052789999942205001840000008003161819223976091_"  style="overflow:visible;"/>
			</clipPath>
			<path style="clip-path:url(#SVGID_00000106146339542716443570000001248541664746338208_);fill:#BE2F31;" d="M24,48.4
				c1.2,0,2.2-1,2.2-2.2S25.2,44,24,44s-2.2,1-2.2,2.2S22.8,48.4,24,48.4"/>
		</g>
		<g class="st1">
			<defs>
				<rect id="SVGID_00000125573881953933338250000009515304484512604299_" y="0.9" width="200.1" height="57.7"/>
			</defs>
			<clipPath id="SVGID_00000068637812761983435050000002304475726703622322_">
				<use xlink:href="#SVGID_00000125573881953933338250000009515304484512604299_"  style="overflow:visible;"/>
			</clipPath>
			<polygon style="clip-path:url(#SVGID_00000068637812761983435050000002304475726703622322_);fill:#BE2F31;" points="48,28.9 
				50,28.9 50,40.6 48.3,40.6 41.8,32.3 41.8,40.6 39.8,40.6 39.8,28.9 41.7,28.9 48,37 			"/>
		</g>
		<g class="st1">
			<defs>
				<rect id="SVGID_00000172406863140418494620000003242404629630909594_" y="0.9" width="200.1" height="57.7"/>
			</defs>
			<clipPath id="SVGID_00000057118915640928990120000008877802509108768926_">
				<use xlink:href="#SVGID_00000172406863140418494620000003242404629630909594_"  style="overflow:visible;"/>
			</clipPath>
			<path style="clip-path:url(#SVGID_00000057118915640928990120000008877802509108768926_);fill:#BE2F31;" d="M58.1,40.6v-1.1
				c-0.6,0.7-1.5,1.3-2.9,1.3c-1.7,0-3.1-1-3.1-2.7l0,0c0-1.9,1.5-2.8,3.6-2.8c1.1,0,1.8,0.2,2.4,0.4v-0.2c0-1.2-0.8-1.9-2.2-1.9
				c-1,0-1.7,0.2-2.5,0.6l-0.5-1.8c1-0.4,1.9-0.7,3.4-0.7c2.6,0,3.9,1.4,3.9,3.7v5.2H58.1z M58.2,36.9c-0.5-0.2-1.2-0.4-2-0.4
				c-1.3,0-2,0.5-2,1.4l0,0c0,0.8,0.8,1.3,1.7,1.3c1.3,0,2.3-0.8,2.3-1.9V36.9z"/>
		</g>
		<g class="st1">
			<defs>
				<rect id="SVGID_00000068666971372426245100000017923521555430282379_" y="0.9" width="200.1" height="57.7"/>
			</defs>
			<clipPath id="SVGID_00000103948982929828957030000006677037437211714442_">
				<use xlink:href="#SVGID_00000068666971372426245100000017923521555430282379_"  style="overflow:visible;"/>
			</clipPath>
			<path style="clip-path:url(#SVGID_00000103948982929828957030000006677037437211714442_);fill:#BE2F31;" d="M65.6,40.8
				c-1.3,0-2.6-0.5-3.7-1.3l0.9-1.4c1,0.7,2,1.1,2.9,1.1c0.9,0,1.4-0.4,1.4-1l0,0c0-0.7-0.9-0.9-2-1.2c-1.3-0.4-2.8-0.9-2.8-2.6l0,0
				c0-1.7,1.4-2.7,3.1-2.7c1.1,0,2.3,0.4,3.2,1l-0.8,1.4c-0.9-0.5-1.8-0.8-2.5-0.8c-0.8,0-1.2,0.4-1.2,0.9l0,0c0,0.6,1,0.9,2,1.2
				c1.3,0.4,2.7,1,2.7,2.6l0,0C68.8,39.9,67.4,40.8,65.6,40.8"/>
		</g>
		<g class="st1">
			<defs>
				<rect id="SVGID_00000128445447810944780600000006253489909012190592_" y="0.9" width="200.1" height="57.7"/>
			</defs>
			<clipPath id="SVGID_00000134946518905572323910000008302999960636187271_">
				<use xlink:href="#SVGID_00000128445447810944780600000006253489909012190592_"  style="overflow:visible;"/>
			</clipPath>
			<path style="clip-path:url(#SVGID_00000134946518905572323910000008302999960636187271_);fill:#BE2F31;" d="M73,31.8v8.9
				c0,1.8-0.9,2.6-2.6,2.6c-0.4,0-0.6,0-1-0.1v-1.6c0.2,0,0.4,0,0.6,0c0.6,0,1-0.3,1-1.1v-8.8L73,31.8L73,31.8z M70.9,28.5h2.2v1.9
				h-2.2V28.5z"/>
		</g>
		<g class="st1">
			<defs>
				<rect id="SVGID_00000085972511232130171120000003960780116968127139_" y="0.9" width="200.1" height="57.7"/>
			</defs>
			<clipPath id="SVGID_00000103958820785634028730000012393439012053587117_">
				<use xlink:href="#SVGID_00000085972511232130171120000003960780116968127139_"  style="overflow:visible;"/>
			</clipPath>
			<path style="clip-path:url(#SVGID_00000103958820785634028730000012393439012053587117_);fill:#BE2F31;" d="M79.9,40.8
				c-2.7,0-4.7-2.1-4.7-4.6s2-4.6,4.7-4.6s4.7,2.1,4.7,4.6C84.6,38.7,82.6,40.8,79.9,40.8 M79.9,33.4c-1.6,0-2.7,1.3-2.7,2.8
				c0,1.6,1.1,2.9,2.7,2.9s2.7-1.3,2.7-2.8C82.6,34.7,81.4,33.4,79.9,33.4"/>
		</g>
		<g class="st1">
			<defs>
				<rect id="SVGID_00000158718988032336417620000004768410448635339193_" y="0.9" width="200.1" height="57.7"/>
			</defs>
			<clipPath id="SVGID_00000150096855708514853160000018164386176555877763_">
				<use xlink:href="#SVGID_00000158718988032336417620000004768410448635339193_"  style="overflow:visible;"/>
			</clipPath>
			<path style="clip-path:url(#SVGID_00000150096855708514853160000018164386176555877763_);fill:#BE2F31;" d="M88.7,40.6h-2v-8.8h2
				v1.4c0.6-0.8,1.4-1.6,2.8-1.6c2,0,3.1,1.3,3.1,3.4v5.6h-2v-5c0-1.4-0.7-2.2-1.9-2.2c-1.2,0-2,0.8-2,2.2V40.6z"/>
		</g>
		<g class="st1">
			<defs>
				<rect id="SVGID_00000052788639493829658340000017312571911586853012_" y="0.9" width="200.1" height="57.7"/>
			</defs>
			<clipPath id="SVGID_00000062158526686080325840000008061247417507756424_">
				<use xlink:href="#SVGID_00000052788639493829658340000017312571911586853012_"  style="overflow:visible;"/>
			</clipPath>
			<path style="clip-path:url(#SVGID_00000062158526686080325840000008061247417507756424_);fill:#BE2F31;" d="M102.4,40.6v-1.1
				c-0.6,0.7-1.5,1.3-2.9,1.3c-1.7,0-3.1-1-3.1-2.7l0,0c0-1.9,1.5-2.8,3.6-2.8c1.1,0,1.8,0.2,2.4,0.4v-0.2c0-1.2-0.8-1.9-2.2-1.9
				c-1,0-1.7,0.2-2.5,0.6l-0.5-1.8c1-0.4,1.9-0.7,3.4-0.7c2.6,0,3.9,1.4,3.9,3.7v5.2H102.4z M102.4,36.9c-0.5-0.2-1.2-0.4-2-0.4
				c-1.3,0-2,0.5-2,1.4l0,0c0,0.8,0.8,1.3,1.7,1.3c1.3,0,2.3-0.8,2.3-1.9V36.9z"/>
		</g>
		<g class="st1">
			<defs>
				<rect id="SVGID_00000028298577531520139210000010458143063702430371_" y="0.9" width="200.1" height="57.7"/>
			</defs>
			<clipPath id="SVGID_00000146489724177477859940000003716634568633741486_">
				<use xlink:href="#SVGID_00000028298577531520139210000010458143063702430371_"  style="overflow:visible;"/>
			</clipPath>
			
				<rect x="106.9" y="28.4" style="clip-path:url(#SVGID_00000146489724177477859940000003716634568633741486_);fill:#BE2F31;" width="2" height="12.2"/>
		</g>
		<g class="st1">
			<defs>
				<rect id="SVGID_00000176747149146444612570000001541174480278028477_" y="0.9" width="200.1" height="57.7"/>
			</defs>
			<clipPath id="SVGID_00000077284350201289489240000011834688679345188277_">
				<use xlink:href="#SVGID_00000176747149146444612570000001541174480278028477_"  style="overflow:visible;"/>
			</clipPath>
			<path style="clip-path:url(#SVGID_00000077284350201289489240000011834688679345188277_);fill:#BE2F31;" d="M116.6,40.8
				c-1.5,0-2.4-0.7-3-1.6v1.4h-2V28.4h2v4.8c0.7-0.9,1.6-1.7,3-1.7c2.1,0,4.1,1.7,4.1,4.6C120.7,39.1,118.7,40.8,116.6,40.8
				 M116.1,33.4c-1.4,0-2.6,1.1-2.6,2.8s1.2,2.8,2.6,2.8s2.5-1.1,2.5-2.8S117.5,33.4,116.1,33.4"/>
		</g>
		<g class="st1">
			<defs>
				<rect id="SVGID_00000007394821266034276610000004655741806862567331_" y="0.9" width="200.1" height="57.7"/>
			</defs>
			<clipPath id="SVGID_00000139259015308539373080000011409358252651702410_">
				<use xlink:href="#SVGID_00000007394821266034276610000004655741806862567331_"  style="overflow:visible;"/>
			</clipPath>
			<path style="clip-path:url(#SVGID_00000139259015308539373080000011409358252651702410_);fill:#BE2F31;" d="M122.8,28.5h2.2v1.9
				h-2.2V28.5z M122.9,31.8h2v8.8h-2V31.8z"/>
		</g>
		<g class="st1">
			<defs>
				<rect id="SVGID_00000097474561371952987360000015829143506511154350_" y="0.9" width="200.1" height="57.7"/>
			</defs>
			<clipPath id="SVGID_00000076567935177873524550000012419474081297719169_">
				<use xlink:href="#SVGID_00000097474561371952987360000015829143506511154350_"  style="overflow:visible;"/>
			</clipPath>
			<path style="clip-path:url(#SVGID_00000076567935177873524550000012419474081297719169_);fill:#BE2F31;" d="M132.5,40.8
				c-1.5,0-2.4-0.7-3-1.6v1.4h-2V28.4h2v4.8c0.7-0.9,1.6-1.7,3-1.7c2.1,0,4.1,1.7,4.1,4.6C136.6,39.1,134.6,40.8,132.5,40.8
				 M132.1,33.4c-1.4,0-2.6,1.1-2.6,2.8s1.2,2.8,2.6,2.8c1.4,0,2.5-1.1,2.5-2.8S133.4,33.4,132.1,33.4"/>
		</g>
		<g class="st1">
			<defs>
				<rect id="SVGID_00000023250566223899490540000008731023715272195497_" y="0.9" width="200.1" height="57.7"/>
			</defs>
			<clipPath id="SVGID_00000180335359947915345220000012472602156440416958_">
				<use xlink:href="#SVGID_00000023250566223899490540000008731023715272195497_"  style="overflow:visible;"/>
			</clipPath>
			
				<rect x="138.8" y="28.4" style="clip-path:url(#SVGID_00000180335359947915345220000012472602156440416958_);fill:#BE2F31;" width="2" height="12.2"/>
		</g>
		<g class="st1">
			<defs>
				<rect id="SVGID_00000022562520239546147420000013988612479164960937_" y="0.9" width="200.1" height="57.7"/>
			</defs>
			<clipPath id="SVGID_00000023255738195341149390000012973291314777045938_">
				<use xlink:href="#SVGID_00000022562520239546147420000013988612479164960937_"  style="overflow:visible;"/>
			</clipPath>
			<path style="clip-path:url(#SVGID_00000023255738195341149390000012973291314777045938_);fill:#BE2F31;" d="M143.5,28.5h2.2v1.9
				h-2.2V28.5z M143.6,31.8h2v8.8h-2V31.8z"/>
		</g>
		<g class="st1">
			<defs>
				<rect id="SVGID_00000083050591298570768430000001714428026575116718_" y="0.9" width="200.1" height="57.7"/>
			</defs>
			<clipPath id="SVGID_00000077287670728217411440000001785879237432921525_">
				<use xlink:href="#SVGID_00000083050591298570768430000001714428026575116718_"  style="overflow:visible;"/>
			</clipPath>
			<path style="clip-path:url(#SVGID_00000077287670728217411440000001785879237432921525_);fill:#BE2F31;" d="M152.4,40.8
				c-2.7,0-4.7-2.1-4.7-4.6s2-4.6,4.7-4.6s4.7,2.1,4.7,4.6C157.2,38.7,155.2,40.8,152.4,40.8 M152.4,33.4c-1.6,0-2.7,1.3-2.7,2.8
				c0,1.6,1.1,2.9,2.7,2.9c1.6,0,2.7-1.3,2.7-2.8C155.1,34.7,154,33.4,152.4,33.4"/>
		</g>
		<g class="st1">
			<defs>
				<rect id="SVGID_00000116222697764718641510000012392128154295224763_" y="0.9" width="200.1" height="57.7"/>
			</defs>
			<clipPath id="SVGID_00000096740095757857924050000011860791109952281735_">
				<use xlink:href="#SVGID_00000116222697764718641510000012392128154295224763_"  style="overflow:visible;"/>
			</clipPath>
			<path style="clip-path:url(#SVGID_00000096740095757857924050000011860791109952281735_);fill:#BE2F31;" d="M161.6,37.8
				c0,0.8,0.4,1.1,1.1,1.1c0.4,0,0.8-0.1,1.3-0.3v1.7c-0.5,0.3-1.1,0.5-1.8,0.5c-1.5,0-2.5-0.7-2.5-2.6v-4.6h-1.1v-1.7h1.1v-2.5h2
				v2.4h2.4v1.7h-2.4v4.3H161.6z"/>
		</g>
		<g class="st1">
			<defs>
				<rect id="SVGID_00000064311531309292961570000011431772240453966733_" y="0.9" width="200.1" height="57.7"/>
			</defs>
			<clipPath id="SVGID_00000082328301496573752340000015931659154771408017_">
				<use xlink:href="#SVGID_00000064311531309292961570000011431772240453966733_"  style="overflow:visible;"/>
			</clipPath>
			<path style="clip-path:url(#SVGID_00000082328301496573752340000015931659154771408017_);fill:#BE2F31;" d="M169.9,39.2
				c1,0,1.7-0.4,2.4-1.1l1.2,1.1c-0.8,1-2,1.7-3.6,1.7c-2.6,0-4.5-1.9-4.5-4.6c0-2.5,1.8-4.6,4.3-4.6c2.8,0,4.2,2.2,4.2,4.8
				c0,0.2,0,0.4,0,0.6h-6.5C167.6,38.4,168.6,39.2,169.9,39.2 M171.8,35.6c-0.1-1.3-0.9-2.3-2.2-2.3c-1.2,0-2.1,1-2.3,2.3H171.8z"/>
		</g>
		<g class="st1">
			<defs>
				<rect id="SVGID_00000094609915945213248930000009059042706492189085_" y="0.9" width="200.1" height="57.7"/>
			</defs>
			<clipPath id="SVGID_00000071527700547306486380000009980991503249083067_">
				<use xlink:href="#SVGID_00000094609915945213248930000009059042706492189085_"  style="overflow:visible;"/>
			</clipPath>
			<polygon style="clip-path:url(#SVGID_00000071527700547306486380000009980991503249083067_);fill:#BE2F31;" points="184.1,40.6 
				181.8,40.6 179.1,36.8 177.9,38.1 177.9,40.6 175.9,40.6 175.9,28.4 177.9,28.4 177.9,35.7 181.6,31.8 184,31.8 180.5,35.4 			
				"/>
		</g>
		<g class="st1">
			<defs>
				<rect id="SVGID_00000114047935438267956120000007827985046716832937_" y="0.9" width="200.1" height="57.7"/>
			</defs>
			<clipPath id="SVGID_00000069376961648530007660000006870467838893140649_">
				<use xlink:href="#SVGID_00000114047935438267956120000007827985046716832937_"  style="overflow:visible;"/>
			</clipPath>
			<path style="clip-path:url(#SVGID_00000069376961648530007660000006870467838893140649_);fill:#BE2F31;" d="M189.3,39.2
				c1,0,1.7-0.4,2.4-1.1l1.2,1.1c-0.8,1-2,1.7-3.6,1.7c-2.6,0-4.5-1.9-4.5-4.6c0-2.5,1.8-4.6,4.3-4.6c2.8,0,4.2,2.2,4.2,4.8
				c0,0.2,0,0.4,0,0.6h-6.5C187,38.4,188,39.2,189.3,39.2 M191.2,35.6c-0.1-1.3-0.9-2.3-2.2-2.3c-1.2,0-2.1,1-2.3,2.3H191.2z"/>
		</g>
		<g class="st1">
			<defs>
				<rect id="SVGID_00000137849991867035687720000010483742980054275258_" y="0.9" width="200.1" height="57.7"/>
			</defs>
			<clipPath id="SVGID_00000166635585909886885670000001899934061212886935_">
				<use xlink:href="#SVGID_00000137849991867035687720000010483742980054275258_"  style="overflow:visible;"/>
			</clipPath>
			<path style="clip-path:url(#SVGID_00000166635585909886885670000001899934061212886935_);fill:#BE2F31;" d="M197.7,37.8
				c0,0.8,0.4,1.1,1.1,1.1c0.5,0,0.8-0.1,1.3-0.3v1.7c-0.5,0.3-1.1,0.5-1.8,0.5c-1.5,0-2.5-0.7-2.5-2.6v-4.6h-1.1v-1.7h1.1v-2.5h2
				v2.4h2.4v1.7h-2.4v4.3H197.7z"/>
		</g>
		<g class="st1">
			<defs>
				<rect id="SVGID_00000170238503931795610560000012137574499483685038_" y="0.9" width="200.1" height="57.7"/>
			</defs>
			<clipPath id="SVGID_00000005984357080594139230000007265498258449066934_">
				<use xlink:href="#SVGID_00000170238503931795610560000012137574499483685038_"  style="overflow:visible;"/>
			</clipPath>
			<polygon style="clip-path:url(#SVGID_00000005984357080594139230000007265498258449066934_);fill:#BE2F31;" points="45.6,48.8 
				46.5,48.8 46.5,56.7 45.8,56.7 40.6,50.2 40.6,56.7 39.8,56.7 39.8,48.8 40.6,48.8 45.6,55.1 			"/>
		</g>
		<g class="st1">
			<defs>
				<rect id="SVGID_00000122712547499827551490000011150048969017802624_" y="0.9" width="200.1" height="57.7"/>
			</defs>
			<clipPath id="SVGID_00000149340780948263880600000015408175184595668652_">
				<use xlink:href="#SVGID_00000122712547499827551490000011150048969017802624_"  style="overflow:visible;"/>
			</clipPath>
			<path style="clip-path:url(#SVGID_00000149340780948263880600000015408175184595668652_);fill:#BE2F31;" d="M49,52l-0.3-0.7
				c0.6-0.3,1.3-0.5,2.1-0.5c1.6,0,2.5,0.8,2.5,2.4v3.6h-0.8v-0.9c-0.4,0.5-1.1,1-2.1,1c-1.1,0-2.2-0.6-2.2-1.8c0-1.3,1-1.9,2.5-1.9
				c0.8,0,1.3,0.1,1.8,0.2v-0.2c0-1.1-0.6-1.6-1.8-1.6C50.1,51.5,49.5,51.7,49,52 M49.1,55c0,0.8,0.7,1.2,1.5,1.2c1.1,0,2-0.7,2-1.6
				V54c-0.4-0.1-1-0.2-1.7-0.2C49.7,53.7,49.1,54.2,49.1,55"/>
		</g>
		<g class="st1">
			<defs>
				<rect id="SVGID_00000008863524903339701890000008345630049593289628_" y="0.9" width="200.1" height="57.7"/>
			</defs>
			<clipPath id="SVGID_00000148621518467587420120000008544315055976833186_">
				<use xlink:href="#SVGID_00000008863524903339701890000008345630049593289628_"  style="overflow:visible;"/>
			</clipPath>
			<path style="clip-path:url(#SVGID_00000148621518467587420120000008544315055976833186_);fill:#BE2F31;" d="M56.4,55.1
				c0,0.7,0.4,1,1,1c0.3,0,0.5-0.1,0.9-0.2v0.8C58,56.9,57.7,57,57.2,57c-0.9,0-1.7-0.5-1.7-1.7v-3.6h-0.8v-0.8h0.8v-1.8h0.9v1.8
				h1.9v0.8h-1.9C56.4,51.7,56.4,55.1,56.4,55.1z"/>
		</g>
		<g class="st1">
			<defs>
				<rect id="SVGID_00000109006858083002691340000003717183460918260897_" y="0.9" width="200.1" height="57.7"/>
			</defs>
			<clipPath id="SVGID_00000049211218709971786490000017225414057040697497_">
				<use xlink:href="#SVGID_00000109006858083002691340000003717183460918260897_"  style="overflow:visible;"/>
			</clipPath>
			<path style="clip-path:url(#SVGID_00000049211218709971786490000017225414057040697497_);fill:#BE2F31;" d="M59.8,48.6h1v1h-1
				V48.6z M59.9,50.8h0.9v5.9h-0.9V50.8z"/>
		</g>
		<g class="st1">
			<defs>
				<rect id="SVGID_00000072990779015855351430000006608357591214362501_" y="0.9" width="200.1" height="57.7"/>
			</defs>
			<clipPath id="SVGID_00000152227916137400130860000011561991586254856102_">
				<use xlink:href="#SVGID_00000072990779015855351430000006608357591214362501_"  style="overflow:visible;"/>
			</clipPath>
			<path style="clip-path:url(#SVGID_00000152227916137400130860000011561991586254856102_);fill:#BE2F31;" d="M65.5,56.9
				c-1.8,0-3.1-1.4-3.1-3.1c0-1.7,1.3-3.1,3.1-3.1c1.8,0,3.1,1.4,3.1,3.1S67.3,56.9,65.5,56.9 M65.5,51.5c-1.3,0-2.2,1-2.2,2.3
				s0.9,2.3,2.2,2.3s2.2-1,2.2-2.3S66.7,51.5,65.5,51.5"/>
		</g>
		<g class="st1">
			<defs>
				<rect id="SVGID_00000010274429881701880760000006928096163423987080_" y="0.9" width="200.1" height="57.7"/>
			</defs>
			<clipPath id="SVGID_00000163061360319215115040000007310747458837089924_">
				<use xlink:href="#SVGID_00000010274429881701880760000006928096163423987080_"  style="overflow:visible;"/>
			</clipPath>
			<path style="clip-path:url(#SVGID_00000163061360319215115040000007310747458837089924_);fill:#BE2F31;" d="M71,56.7h-0.9v-5.9
				H71v1c0.4-0.6,1-1.2,2-1.2c1.4,0,2.3,1,2.3,2.4v3.7h-0.9v-3.4c0-1.1-0.6-1.8-1.6-1.8S71,52.2,71,53.3V56.7z"/>
		</g>
		<g class="st1">
			<defs>
				<rect id="SVGID_00000070099691895722355320000004938248129721841029_" y="0.9" width="200.1" height="57.7"/>
			</defs>
			<clipPath id="SVGID_00000183212614498924168200000005048419736144549275_">
				<use xlink:href="#SVGID_00000070099691895722355320000004938248129721841029_"  style="overflow:visible;"/>
			</clipPath>
			<path style="clip-path:url(#SVGID_00000183212614498924168200000005048419736144549275_);fill:#BE2F31;" d="M77.5,52l-0.3-0.7
				c0.6-0.3,1.3-0.5,2.1-0.5c1.6,0,2.5,0.8,2.5,2.4v3.6H81v-0.9c-0.4,0.5-1.1,1-2.1,1c-1.1,0-2.2-0.6-2.2-1.8c0-1.3,1-1.9,2.5-1.9
				c0.8,0,1.3,0.1,1.8,0.2v-0.2c0-1.1-0.6-1.6-1.8-1.6C78.6,51.5,78.1,51.7,77.5,52 M77.6,55c0,0.8,0.7,1.2,1.5,1.2
				c1.1,0,2-0.7,2-1.6V54c-0.4-0.1-1-0.2-1.7-0.2C78.3,53.7,77.6,54.2,77.6,55"/>
		</g>
		<g class="st1">
			<defs>
				<rect id="SVGID_00000152225001432915003090000004132359299522183866_" y="0.9" width="200.1" height="57.7"/>
			</defs>
			<clipPath id="SVGID_00000048458746023003033760000002596645833482376074_">
				<use xlink:href="#SVGID_00000152225001432915003090000004132359299522183866_"  style="overflow:visible;"/>
			</clipPath>
			
				<rect x="83.9" y="48.4" style="clip-path:url(#SVGID_00000048458746023003033760000002596645833482376074_);fill:#BE2F31;" width="0.9" height="8.3"/>
		</g>
		<g class="st1">
			<defs>
				<rect id="SVGID_00000167375311532000354640000008657647744686052270_" y="0.9" width="200.1" height="57.7"/>
			</defs>
			<clipPath id="SVGID_00000042018013321391176970000000039041276570516149_">
				<use xlink:href="#SVGID_00000167375311532000354640000008657647744686052270_"  style="overflow:visible;"/>
			</clipPath>
			<polygon style="clip-path:url(#SVGID_00000042018013321391176970000000039041276570516149_);fill:#BE2F31;" points="90.4,48.8 
				91.3,48.8 91.3,55.9 95.8,55.9 95.8,56.7 90.4,56.7 			"/>
		</g>
		<g class="st1">
			<defs>
				<rect id="SVGID_00000076576498175684070580000001992388560363678617_" y="0.9" width="200.1" height="57.7"/>
			</defs>
			<clipPath id="SVGID_00000157294400295482269650000001834526691299507903_">
				<use xlink:href="#SVGID_00000076576498175684070580000001992388560363678617_"  style="overflow:visible;"/>
			</clipPath>
			<path style="clip-path:url(#SVGID_00000157294400295482269650000001834526691299507903_);fill:#BE2F31;" d="M97.3,48.6h1v1h-1
				V48.6z M97.4,50.8h0.9v5.9h-0.9V50.8z"/>
		</g>
		<g class="st1">
			<defs>
				<rect id="SVGID_00000103958808551243303940000002913284599098974129_" y="0.9" width="200.1" height="57.7"/>
			</defs>
			<clipPath id="SVGID_00000039098379976129867160000018104265583357505933_">
				<use xlink:href="#SVGID_00000103958808551243303940000002913284599098974129_"  style="overflow:visible;"/>
			</clipPath>
			<path style="clip-path:url(#SVGID_00000039098379976129867160000018104265583357505933_);fill:#BE2F31;" d="M103.4,56.9
				c-1.1,0-1.8-0.6-2.3-1.3v1.1h-0.9v-8.3h0.9V52c0.5-0.7,1.2-1.3,2.3-1.3c1.4,0,2.8,1.1,2.8,3.1C106.2,55.7,104.9,56.9,103.4,56.9
				 M103.3,51.5c-1.1,0-2.1,0.9-2.1,2.3s1,2.3,2.1,2.3s2.1-0.8,2.1-2.3C105.3,52.4,104.4,51.5,103.3,51.5"/>
		</g>
		<g class="st1">
			<defs>
				<rect id="SVGID_00000095320998260013389230000014800855891588040633_" y="0.9" width="200.1" height="57.7"/>
			</defs>
			<clipPath id="SVGID_00000078013809131500435340000014556830430815513770_">
				<use xlink:href="#SVGID_00000095320998260013389230000014800855891588040633_"  style="overflow:visible;"/>
			</clipPath>
			<path style="clip-path:url(#SVGID_00000078013809131500435340000014556830430815513770_);fill:#BE2F31;" d="M108.7,56.7h-0.9
				v-5.9h0.9v1.6c0.4-1,1.3-1.7,2.4-1.6v0.9H111c-1.3,0-2.3,0.9-2.3,2.7V56.7z"/>
		</g>
		<g class="st1">
			<defs>
				<rect id="SVGID_00000081643955060846512260000018120552321547532203_" y="0.9" width="200.1" height="57.7"/>
			</defs>
			<clipPath id="SVGID_00000051344737335798837010000011351068652567517371_">
				<use xlink:href="#SVGID_00000081643955060846512260000018120552321547532203_"  style="overflow:visible;"/>
			</clipPath>
			<path style="clip-path:url(#SVGID_00000051344737335798837010000011351068652567517371_);fill:#BE2F31;" d="M112.5,52l-0.3-0.7
				c0.6-0.3,1.3-0.5,2.1-0.5c1.6,0,2.5,0.8,2.5,2.4v3.6H116v-0.9c-0.4,0.5-1.1,1-2.1,1c-1.1,0-2.2-0.6-2.2-1.8c0-1.3,1-1.9,2.5-1.9
				c0.8,0,1.3,0.1,1.8,0.2v-0.2c0-1.1-0.6-1.6-1.8-1.6C113.6,51.5,113.1,51.7,112.5,52 M112.7,55c0,0.8,0.7,1.2,1.5,1.2
				c1.1,0,2-0.7,2-1.6V54c-0.4-0.1-1-0.2-1.7-0.2C113.3,53.7,112.7,54.2,112.7,55"/>
		</g>
		<g class="st1">
			<defs>
				<rect id="SVGID_00000051383694485688439210000000388716707995201683_" y="0.9" width="200.1" height="57.7"/>
			</defs>
			<clipPath id="SVGID_00000152244560900749113840000010735779201627639989_">
				<use xlink:href="#SVGID_00000051383694485688439210000000388716707995201683_"  style="overflow:visible;"/>
			</clipPath>
			<path style="clip-path:url(#SVGID_00000152244560900749113840000010735779201627639989_);fill:#BE2F31;" d="M119.7,56.7h-0.9
				v-5.9h0.9v1.6c0.4-1,1.3-1.7,2.4-1.6v0.9H122c-1.3,0-2.3,0.9-2.3,2.7V56.7z"/>
		</g>
		<g class="st1">
			<defs>
				<rect id="SVGID_00000029731130584006183690000005448992225584536458_" y="0.9" width="200.1" height="57.7"/>
			</defs>
			<clipPath id="SVGID_00000132773397726260516260000011158908644288141209_">
				<use xlink:href="#SVGID_00000029731130584006183690000005448992225584536458_"  style="overflow:visible;"/>
			</clipPath>
			<path style="clip-path:url(#SVGID_00000132773397726260516260000011158908644288141209_);fill:#BE2F31;" d="M126.3,56.9
				c-0.5,1.2-1.1,1.7-2,1.7c-0.5,0-0.9-0.1-1.3-0.3l0.3-0.7c0.3,0.1,0.5,0.2,0.9,0.2c0.5,0,0.9-0.3,1.2-1.1l-2.7-5.9h1l2.1,4.9
				l1.9-4.9h0.9L126.3,56.9z"/>
		</g>
		<g class="st1">
			<defs>
				<rect id="SVGID_00000119084865308744122980000011931131492265217465_" y="0.9" width="200.1" height="57.7"/>
			</defs>
			<clipPath id="SVGID_00000147186855751834216770000009926031233427033256_">
				<use xlink:href="#SVGID_00000119084865308744122980000011931131492265217465_"  style="overflow:visible;"/>
			</clipPath>
			<path style="clip-path:url(#SVGID_00000147186855751834216770000009926031233427033256_);fill:#BE2F31;" d="M136.3,56.9
				c-1.8,0-3.1-1.4-3.1-3.1c0-1.7,1.3-3.1,3.1-3.1s3.1,1.4,3.1,3.1C139.4,55.5,138.1,56.9,136.3,56.9 M136.3,51.5
				c-1.3,0-2.2,1-2.2,2.3s0.9,2.3,2.2,2.3s2.2-1,2.2-2.3S137.5,51.5,136.3,51.5"/>
		</g>
		<g class="st1">
			<defs>
				<rect id="SVGID_00000183213740622801897380000012572046451046976687_" y="0.9" width="200.1" height="57.7"/>
			</defs>
			<clipPath id="SVGID_00000103958513382949308410000013179983075258227370_">
				<use xlink:href="#SVGID_00000183213740622801897380000012572046451046976687_"  style="overflow:visible;"/>
			</clipPath>
			<path style="clip-path:url(#SVGID_00000103958513382949308410000013179983075258227370_);fill:#BE2F31;" d="M144,50.9v0.8h-1.9
				v5.1h-0.9v-5.1h-0.8v-0.8h0.8v-0.5c0-1.3,0.6-2,1.8-2c0.4,0,0.7,0,1,0.2v0.8c-0.3-0.1-0.6-0.2-0.9-0.2c-0.7,0-1,0.4-1,1.3V51h1.9
				V50.9z"/>
		</g>
		<g class="st1">
			<defs>
				<rect id="SVGID_00000082336520268488384530000006932202422526907282_" y="0.9" width="200.1" height="57.7"/>
			</defs>
			<clipPath id="SVGID_00000173846963648499844160000003313908985843530426_">
				<use xlink:href="#SVGID_00000082336520268488384530000006932202422526907282_"  style="overflow:visible;"/>
			</clipPath>
			<polygon style="clip-path:url(#SVGID_00000173846963648499844160000003313908985843530426_);fill:#BE2F31;" points="154.6,48.8 
				155.5,48.8 155.5,56.7 154.8,56.7 149.6,50.2 149.6,56.7 148.7,56.7 148.7,48.8 149.6,48.8 154.6,55.1 			"/>
		</g>
		<g class="st1">
			<defs>
				<rect id="SVGID_00000175302831627109752710000016816774280555522206_" y="0.9" width="200.1" height="57.7"/>
			</defs>
			<clipPath id="SVGID_00000065766631994227744120000013935677083874949291_">
				<use xlink:href="#SVGID_00000175302831627109752710000016816774280555522206_"  style="overflow:visible;"/>
			</clipPath>
			<path style="clip-path:url(#SVGID_00000065766631994227744120000013935677083874949291_);fill:#BE2F31;" d="M160.3,56.9
				c-1.8,0-3.1-1.4-3.1-3.1c0-1.7,1.3-3.1,3.1-3.1s3.1,1.4,3.1,3.1C163.4,55.5,162.1,56.9,160.3,56.9 M160.3,51.5
				c-1.3,0-2.2,1-2.2,2.3s0.9,2.3,2.2,2.3s2.2-1,2.2-2.3S161.5,51.5,160.3,51.5"/>
		</g>
		<g class="st1">
			<defs>
				<rect id="SVGID_00000159447489129595976890000016642059540990965175_" y="0.9" width="200.1" height="57.7"/>
			</defs>
			<clipPath id="SVGID_00000130620547188177492720000012539834588297230217_">
				<use xlink:href="#SVGID_00000159447489129595976890000016642059540990965175_"  style="overflow:visible;"/>
			</clipPath>
			<path style="clip-path:url(#SVGID_00000130620547188177492720000012539834588297230217_);fill:#BE2F31;" d="M165.9,56.7H165v-5.9
				h0.9v1.6c0.4-1,1.3-1.7,2.4-1.6v0.9h-0.1c-1.3,0-2.3,0.9-2.3,2.7L165.9,56.7L165.9,56.7z"/>
		</g>
		<g class="st1">
			<defs>
				<rect id="SVGID_00000087373787061441029690000009752310668806534053_" y="0.9" width="200.1" height="57.7"/>
			</defs>
			<clipPath id="SVGID_00000018205413888124284100000000254079612418518923_">
				<use xlink:href="#SVGID_00000087373787061441029690000009752310668806534053_"  style="overflow:visible;"/>
			</clipPath>
			<polygon style="clip-path:url(#SVGID_00000018205413888124284100000000254079612418518923_);fill:#BE2F31;" points="175.5,55.6 
				177.1,50.8 178,50.8 175.9,56.8 175.1,56.8 173.5,52.1 171.9,56.8 171.2,56.8 169.1,50.8 170,50.8 171.6,55.6 173.2,50.8 
				173.9,50.8 			"/>
		</g>
		<g class="st1">
			<defs>
				<rect id="SVGID_00000039108192946896656910000009245248759707826567_" y="0.9" width="200.1" height="57.7"/>
			</defs>
			<clipPath id="SVGID_00000011743222555950971820000010230374466818635455_">
				<use xlink:href="#SVGID_00000039108192946896656910000009245248759707826567_"  style="overflow:visible;"/>
			</clipPath>
			<path style="clip-path:url(#SVGID_00000011743222555950971820000010230374466818635455_);fill:#BE2F31;" d="M179.5,52l-0.3-0.7
				c0.6-0.3,1.3-0.5,2.1-0.5c1.6,0,2.5,0.8,2.5,2.4v3.6H183v-0.9c-0.4,0.5-1.1,1-2.1,1c-1.1,0-2.2-0.6-2.2-1.8c0-1.3,1-1.9,2.5-1.9
				c0.8,0,1.3,0.1,1.8,0.2v-0.2c0-1.1-0.6-1.6-1.8-1.6C180.6,51.5,180.1,51.7,179.5,52 M179.6,55c0,0.8,0.7,1.2,1.5,1.2
				c1.1,0,2-0.7,2-1.6V54c-0.4-0.1-1-0.2-1.7-0.2C180.3,53.7,179.6,54.2,179.6,55"/>
		</g>
		<g class="st1">
			<defs>
				<rect id="SVGID_00000121967901266118483110000009246218665263364010_" y="0.9" width="200.1" height="57.7"/>
			</defs>
			<clipPath id="SVGID_00000096048012594147183730000004383312547421637781_">
				<use xlink:href="#SVGID_00000121967901266118483110000009246218665263364010_"  style="overflow:visible;"/>
			</clipPath>
			<path style="clip-path:url(#SVGID_00000096048012594147183730000004383312547421637781_);fill:#BE2F31;" d="M188.5,56.9
				c-0.5,1.2-1.1,1.7-2,1.7c-0.5,0-0.9-0.1-1.3-0.3l0.3-0.7c0.3,0.1,0.5,0.2,0.9,0.2c0.5,0,0.9-0.3,1.2-1.1l-2.7-5.9h1l2.1,4.9
				l1.9-4.9h0.9L188.5,56.9z"/>
		</g>
	</g>
	<g>
		<g>
			<defs>
				<rect id="SVGID_00000092456239659228811370000001063298096034927524_" x="0.3" y="0.9" width="200.1" height="57.7"/>
			</defs>
			<clipPath id="SVGID_00000087374607004265727440000004331151907391514268_">
				<use xlink:href="#SVGID_00000092456239659228811370000001063298096034927524_"  style="overflow:visible;"/>
			</clipPath>
			<path style="clip-path:url(#SVGID_00000087374607004265727440000004331151907391514268_);fill:#A5132A;" d="M2.5,16.2
				c1.2,0,2.2-1,2.2-2.2s-1-2.2-2.2-2.2s-2.2,1-2.2,2.2C0.3,15.2,1.3,16.2,2.5,16.2"/>
		</g>
		<g>
			<defs>
				<rect id="SVGID_00000043441856358024670770000013844983661720065430_" x="0.3" y="0.9" width="200.1" height="57.7"/>
			</defs>
			<clipPath id="SVGID_00000152245792302998850220000003153426630790050439_">
				<use xlink:href="#SVGID_00000043441856358024670770000013844983661720065430_"  style="overflow:visible;"/>
			</clipPath>
			<path style="clip-path:url(#SVGID_00000152245792302998850220000003153426630790050439_);fill:#A5132A;" d="M8,41h25.4V0.9H8V41z
				 M13.4,16.2c-1.2,0-2.2-1-2.2-2.2s1-2.2,2.2-2.2s2.2,1,2.2,2.2C15.5,15.2,14.6,16.2,13.4,16.2 M24.2,37.6c-1.2,0-2.2-1-2.2-2.2
				s1-2.2,2.2-2.2s2.2,1,2.2,2.2C26.3,36.6,25.4,37.6,24.2,37.6 M24.2,26.9c-1.2,0-2.2-1-2.2-2.2s1-2.2,2.2-2.2s2.2,1,2.2,2.2
				S25.4,26.9,24.2,26.9 M24.2,16.2c-1.2,0-2.2-1-2.2-2.2s1-2.2,2.2-2.2s2.2,1,2.2,2.2C26.3,15.2,25.4,16.2,24.2,16.2"/>
		</g>
		<g>
			<defs>
				<rect id="SVGID_00000011742994210944088560000013265294535348886691_" x="0.3" y="0.9" width="200.1" height="57.7"/>
			</defs>
			<clipPath id="SVGID_00000165947984966000326400000014641222440507682719_">
				<use xlink:href="#SVGID_00000011742994210944088560000013265294535348886691_"  style="overflow:visible;"/>
			</clipPath>
			<path style="clip-path:url(#SVGID_00000165947984966000326400000014641222440507682719_);fill:#A5132A;" d="M24.3,48.4
				c1.2,0,2.2-1,2.2-2.2s-1-2.2-2.2-2.2s-2.2,1-2.2,2.2C22.2,47.4,23.1,48.4,24.3,48.4"/>
		</g>
		<g>
			<defs>
				<rect id="SVGID_00000075150545087404309350000003932441407906965899_" x="0.3" y="0.9" width="200.1" height="57.7"/>
			</defs>
			<clipPath id="SVGID_00000164499831903851444060000008170941829254984849_">
				<use xlink:href="#SVGID_00000075150545087404309350000003932441407906965899_"  style="overflow:visible;"/>
			</clipPath>
			<g style="clip-path:url(#SVGID_00000164499831903851444060000008170941829254984849_);">
				<polygon class="st51" points="48.3,28.9 50.3,28.9 50.3,40.6 48.6,40.6 42.2,32.3 42.2,40.6 40.1,40.6 40.1,28.9 42,28.9 
					48.3,37 				"/>
				<path class="st51" d="M58.5,40.6v-1.1c-0.6,0.7-1.5,1.3-2.9,1.3c-1.7,0-3.1-1-3.1-2.7l0,0c0-1.9,1.5-2.8,3.6-2.8
					c1.1,0,1.8,0.2,2.4,0.4v-0.2c0-1.2-0.8-1.9-2.2-1.9c-1,0-1.7,0.2-2.5,0.6l-0.5-1.8c1-0.4,1.9-0.7,3.4-0.7c2.6,0,3.9,1.4,3.9,3.7
					v5.2H58.5z M58.5,36.9c-0.5-0.2-1.2-0.4-2-0.4c-1.3,0-2,0.5-2,1.4l0,0c0,0.8,0.8,1.3,1.7,1.3c1.3,0,2.3-0.8,2.3-1.9V36.9z"/>
				<path class="st51" d="M65.9,40.8c-1.3,0-2.6-0.5-3.7-1.3l0.9-1.4c1,0.7,2,1.1,2.9,1.1c0.9,0,1.4-0.4,1.4-1l0,0
					c0-0.7-0.9-0.9-2-1.2c-1.3-0.4-2.8-0.9-2.8-2.6l0,0c0-1.7,1.4-2.7,3.1-2.7c1.1,0,2.3,0.4,3.2,1l-0.8,1.4
					c-0.9-0.5-1.8-0.8-2.5-0.8c-0.8,0-1.2,0.4-1.2,0.9l0,0c0,0.6,1,0.9,2,1.2c1.3,0.4,2.7,1,2.7,2.6l0,0
					C69.2,39.9,67.8,40.8,65.9,40.8"/>
				<path class="st51" d="M73.4,31.8v8.9c0,1.8-0.9,2.6-2.6,2.6c-0.4,0-0.6,0-1-0.1v-1.6c0.2,0,0.4,0,0.6,0c0.6,0,1-0.3,1-1.1v-8.8
					L73.4,31.8L73.4,31.8z M71.3,28.5h2.2v1.9h-2.2V28.5z"/>
				<path class="st51" d="M80.2,40.8c-2.7,0-4.7-2.1-4.7-4.6s2-4.6,4.7-4.6s4.7,2.1,4.7,4.6C84.9,38.7,82.9,40.8,80.2,40.8
					 M80.2,33.4c-1.6,0-2.7,1.3-2.7,2.8c0,1.6,1.1,2.9,2.7,2.9s2.7-1.3,2.7-2.8C82.9,34.7,81.8,33.4,80.2,33.4"/>
				<path class="st51" d="M89,40.6h-2v-8.8h2v1.4c0.6-0.8,1.4-1.6,2.8-1.6c2,0,3.1,1.3,3.1,3.4v5.6h-2v-5c0-1.4-0.7-2.2-1.9-2.2
					c-1.2,0-2,0.8-2,2.2V40.6z"/>
				<path class="st51" d="M102.7,40.6v-1.1c-0.6,0.7-1.5,1.3-2.9,1.3c-1.7,0-3.1-1-3.1-2.7l0,0c0-1.9,1.5-2.8,3.6-2.8
					c1.1,0,1.8,0.2,2.4,0.4v-0.2c0-1.2-0.8-1.9-2.2-1.9c-1,0-1.7,0.2-2.5,0.6l-0.5-1.8c1-0.4,1.9-0.7,3.4-0.7c2.6,0,3.9,1.4,3.9,3.7
					v5.2H102.7z M102.8,36.9c-0.5-0.2-1.2-0.4-2-0.4c-1.3,0-2,0.5-2,1.4l0,0c0,0.8,0.8,1.3,1.7,1.3c1.3,0,2.3-0.8,2.3-1.9V36.9z"/>
				<rect x="107.2" y="28.4" class="st51" width="2" height="12.2"/>
				<path class="st51" d="M116.9,40.8c-1.5,0-2.4-0.7-3-1.6v1.4h-2V28.4h2v4.8c0.7-0.9,1.6-1.7,3-1.7c2.1,0,4.1,1.7,4.1,4.6
					C121,39.1,119,40.8,116.9,40.8 M116.4,33.4c-1.4,0-2.6,1.1-2.6,2.8s1.2,2.8,2.6,2.8s2.5-1.1,2.5-2.8
					C119,34.5,117.8,33.4,116.4,33.4"/>
				<path class="st51" d="M123.1,28.5h2.2v1.9h-2.2V28.5z M123.2,31.8h2v8.8h-2V31.8z"/>
				<path class="st51" d="M132.9,40.8c-1.5,0-2.4-0.7-3-1.6v1.4h-2V28.4h2v4.8c0.7-0.9,1.6-1.7,3-1.7c2.1,0,4.1,1.7,4.1,4.6
					C137,39.1,135,40.8,132.9,40.8 M132.4,33.4c-1.4,0-2.6,1.1-2.6,2.8s1.2,2.8,2.6,2.8c1.4,0,2.5-1.1,2.5-2.8
					S133.8,33.4,132.4,33.4"/>
				<rect x="139.2" y="28.4" class="st51" width="2" height="12.2"/>
				<path class="st51" d="M143.8,28.5h2.2v1.9h-2.2V28.5z M143.9,31.8h2v8.8h-2V31.8z"/>
				<path class="st51" d="M152.8,40.8c-2.7,0-4.7-2.1-4.7-4.6s2-4.6,4.7-4.6s4.7,2.1,4.7,4.6C157.5,38.7,155.5,40.8,152.8,40.8
					 M152.8,33.4c-1.6,0-2.7,1.3-2.7,2.8c0,1.6,1.1,2.9,2.7,2.9c1.6,0,2.7-1.3,2.7-2.8C155.5,34.7,154.4,33.4,152.8,33.4"/>
				<path class="st51" d="M162,37.8c0,0.8,0.4,1.1,1.1,1.1c0.4,0,0.8-0.1,1.3-0.3v1.7c-0.5,0.3-1.1,0.5-1.8,0.5
					c-1.5,0-2.5-0.7-2.5-2.6v-4.6H159v-1.7h1.1v-2.5h2v2.4h2.4v1.7H162V37.8z"/>
				<path class="st51" d="M170.2,39.2c1,0,1.7-0.4,2.4-1.1l1.2,1.1c-0.8,1-2,1.7-3.6,1.7c-2.6,0-4.5-1.9-4.5-4.6
					c0-2.5,1.8-4.6,4.3-4.6c2.8,0,4.2,2.2,4.2,4.8c0,0.2,0,0.4,0,0.6h-6.5C167.9,38.4,168.9,39.2,170.2,39.2 M172.2,35.6
					c-0.1-1.3-0.9-2.3-2.2-2.3c-1.2,0-2.1,1-2.3,2.3H172.2z"/>
				<polygon class="st51" points="184.5,40.6 182.1,40.6 179.5,36.8 178.3,38.1 178.3,40.6 176.2,40.6 176.2,28.4 178.3,28.4 
					178.3,35.7 181.9,31.8 184.4,31.8 180.9,35.4 				"/>
				<path class="st51" d="M189.6,39.2c1,0,1.7-0.4,2.4-1.1l1.2,1.1c-0.8,1-2,1.7-3.6,1.7c-2.6,0-4.5-1.9-4.5-4.6
					c0-2.5,1.8-4.6,4.3-4.6c2.8,0,4.2,2.2,4.2,4.8c0,0.2,0,0.4,0,0.6h-6.5C187.3,38.4,188.3,39.2,189.6,39.2 M191.6,35.6
					c-0.1-1.3-0.9-2.3-2.2-2.3c-1.2,0-2.1,1-2.3,2.3H191.6z"/>
				<path class="st51" d="M198,37.8c0,0.8,0.4,1.1,1.1,1.1c0.5,0,0.8-0.1,1.3-0.3v1.7c-0.5,0.3-1.1,0.5-1.8,0.5
					c-1.5,0-2.5-0.7-2.5-2.6v-4.6H195v-1.7h1.1v-2.5h2v2.4h2.4v1.7H198V37.8z"/>
			</g>
		</g>
	</g>
</g>
<g>
	<path class="st51" d="M47.3,48.5h1v9.1h-0.8l-5.9-7.5v7.5h-1v-9.1h1l5.7,7.3V48.5z"/>
	<path class="st51" d="M51.6,55.6c0.1,0.3,0.3,0.5,0.5,0.7s0.5,0.3,0.7,0.4s0.6,0.1,0.8,0.1c0.5,0,0.9-0.1,1.2-0.3
		c0.3-0.2,0.6-0.4,0.9-0.7l0.6,0.6c-0.3,0.4-0.7,0.7-1.2,0.9c-0.4,0.2-1,0.3-1.6,0.3c-0.5,0-0.9-0.1-1.3-0.3
		c-0.4-0.2-0.8-0.4-1.1-0.7c-0.3-0.3-0.5-0.7-0.7-1.1s-0.3-0.9-0.3-1.4s0.1-0.9,0.2-1.4s0.4-0.8,0.7-1.1s0.6-0.6,1-0.7
		c0.4-0.2,0.8-0.3,1.3-0.3s0.9,0.1,1.3,0.3c0.4,0.2,0.7,0.4,1,0.8c0.3,0.3,0.5,0.7,0.6,1.1c0.1,0.4,0.2,0.9,0.2,1.4v0.1
		c0,0,0,0.1,0,0.2h-5.3C51.4,55,51.4,55.3,51.6,55.6z M55.6,53.9c0-0.3-0.1-0.6-0.2-0.9s-0.2-0.5-0.4-0.7s-0.4-0.4-0.6-0.5
		c-0.3-0.1-0.5-0.2-0.9-0.2c-0.3,0-0.6,0.1-0.8,0.2c-0.2,0.1-0.5,0.3-0.7,0.5s-0.3,0.4-0.5,0.7s-0.2,0.6-0.2,0.9H55.6z"/>
	<path class="st51" d="M59.8,55.7c0,0.4,0.1,0.7,0.3,0.9c0.2,0.2,0.5,0.2,0.8,0.2c0.2,0,0.3,0,0.5-0.1c0.2,0,0.3-0.1,0.5-0.2v0.9
		c-0.2,0.1-0.4,0.2-0.6,0.2c-0.2,0-0.4,0.1-0.7,0.1s-0.5,0-0.8-0.1c-0.2-0.1-0.4-0.2-0.6-0.3c-0.2-0.2-0.3-0.3-0.4-0.6
		c-0.1-0.2-0.1-0.5-0.1-0.9v-4.1h-0.9v-0.9h0.9v-2h1v2h2.1v0.9h-2.1L59.8,55.7L59.8,55.7z"/>
	<path class="st51" d="M65,55.7c0,0.4,0.1,0.7,0.3,0.9c0.2,0.2,0.5,0.2,0.8,0.2c0.2,0,0.3,0,0.5-0.1c0.2,0,0.3-0.1,0.5-0.2v0.9
		c-0.2,0.1-0.4,0.2-0.6,0.2s-0.4,0.1-0.7,0.1c-0.3,0-0.5,0-0.8-0.1c-0.2-0.1-0.4-0.2-0.6-0.3c-0.2-0.2-0.3-0.3-0.4-0.6
		c0.1-0.3,0-0.6,0-0.9v-4.1h-0.9v-0.9H64v-2h1v2h2.1v0.9H65V55.7z"/>
	<path class="st51" d="M70.3,51.8c-0.3,0.1-0.6,0.2-1,0.4L69,51.3c0.4-0.2,0.7-0.3,1.1-0.4s0.8-0.1,1.3-0.1c0.9,0,1.6,0.2,2.1,0.7
		s0.7,1.1,0.7,2v4.1h-1v-1c-0.2,0.3-0.5,0.6-0.9,0.8s-0.9,0.4-1.5,0.4c-0.3,0-0.6,0-0.9-0.1s-0.6-0.2-0.8-0.4
		c-0.2-0.2-0.4-0.4-0.6-0.7c-0.1-0.3-0.2-0.6-0.2-0.9s0.1-0.7,0.2-0.9c0.1-0.3,0.3-0.5,0.6-0.7c0.3-0.2,0.6-0.3,0.9-0.4
		c0.4-0.1,0.7-0.1,1.2-0.1c0.4,0,0.8,0,1.1,0.1c0.3,0.1,0.6,0.1,0.9,0.2v-0.2c0-0.6-0.2-1.1-0.5-1.4s-0.8-0.5-1.5-0.5
		C70.9,51.7,70.6,51.7,70.3,51.8z M69.9,54.6c-0.3,0.3-0.5,0.6-0.5,1c0,0.2,0,0.4,0.1,0.6s0.2,0.3,0.4,0.4c0.2,0.1,0.3,0.2,0.5,0.3
		C70.6,57,70.8,57,71,57c0.3,0,0.6,0,0.9-0.1s0.5-0.2,0.7-0.4c0.2-0.2,0.4-0.4,0.5-0.6s0.2-0.5,0.2-0.7v-0.7
		c-0.3-0.1-0.5-0.1-0.9-0.2c-0.3-0.1-0.7-0.1-1.1-0.1C70.8,54.2,70.3,54.3,69.9,54.6z"/>
	<path class="st51" d="M77.4,57.6h-1v-6.7h1v1.8c0.1-0.3,0.3-0.5,0.5-0.8c0.2-0.2,0.4-0.4,0.6-0.6c0.2-0.2,0.5-0.3,0.8-0.4
		s0.6-0.1,0.9-0.1v1.1h-0.1c-0.4,0-0.7,0.1-1,0.2c-0.3,0.1-0.6,0.3-0.9,0.6c-0.2,0.3-0.4,0.6-0.6,1c-0.1,0.4-0.2,0.8-0.2,1.3
		C77.4,55,77.4,57.6,77.4,57.6z"/>
	<path class="st51" d="M87.7,57.6h-1.2l-2.4-3.1l-1.4,1.4v1.8h-1v-9.5h1v6.6l3.6-3.8h1.2l-2.8,2.9L87.7,57.6z"/>
	<path class="st51" d="M89.1,49.4v-1.1h1.1v1.1H89.1z M89.2,57.6v-6.7h1v6.7H89.2z"/>
	<path class="st51" d="M97.5,50.9h1.1l-2.9,6.8h-0.9l-2.9-6.8H93l2.3,5.6L97.5,50.9z"/>
	<path class="st51" d="M100.6,55.6c0.1,0.3,0.3,0.5,0.5,0.7s0.5,0.3,0.7,0.4s0.5,0.1,0.8,0.1c0.5,0,0.9-0.1,1.2-0.3
		c0.3-0.2,0.6-0.4,0.9-0.7l0.6,0.6c-0.3,0.4-0.7,0.7-1.2,0.9s-1,0.3-1.6,0.3c-0.5,0-0.9-0.1-1.3-0.3c-0.4-0.2-0.8-0.4-1.1-0.7
		c-0.3-0.3-0.5-0.7-0.7-1.1s-0.3-0.9-0.3-1.4s0.1-0.9,0.2-1.4s0.4-0.8,0.7-1.1c0.3-0.3,0.6-0.6,1-0.7c0.4-0.2,0.8-0.3,1.3-0.3
		s0.9,0.1,1.3,0.3s0.7,0.4,1,0.8c0.3,0.3,0.5,0.7,0.6,1.1c0.1,0.4,0.2,0.9,0.2,1.4v0.1c0,0,0,0.1,0,0.2h-5.3
		C100.4,55,100.5,55.3,100.6,55.6z M104.7,53.9c0-0.3-0.1-0.6-0.2-0.9c-0.1-0.3-0.2-0.5-0.4-0.7c-0.2-0.2-0.4-0.4-0.6-0.5
		c-0.3-0.1-0.5-0.2-0.9-0.2c-0.3,0-0.6,0.1-0.8,0.2c-0.2,0.1-0.5,0.3-0.7,0.5s-0.3,0.4-0.5,0.7s-0.2,0.6-0.2,0.9H104.7z"/>
	<path class="st51" d="M108.8,55.7c0,0.4,0.1,0.7,0.3,0.9c0.2,0.2,0.5,0.2,0.8,0.2c0.2,0,0.3,0,0.5-0.1c0.2,0,0.3-0.1,0.5-0.2v0.9
		c-0.2,0.1-0.4,0.2-0.6,0.2s-0.4,0.1-0.7,0.1c-0.3,0-0.5,0-0.8-0.1c-0.2-0.1-0.4-0.2-0.6-0.3s-0.3-0.3-0.4-0.6
		c-0.1-0.2-0.1-0.5-0.1-0.9v-4.1h-0.9v-0.9h0.9v-2h1v2h2.1v0.9h-2.1L108.8,55.7L108.8,55.7z"/>
</g>
</svg>
